<svg xmlns="http://www.w3.org/2000/svg" viewBox="0 0 1200 675">
  <defs>
    <linearGradient id="sky" x1="0" x2="1" y1="0" y2="1">
      <stop offset="0" stop-color="#dfe9ef"/>
      <stop offset="1" stop-color="#aebdc8"/>
    </linearGradient>
    <linearGradient id="stone" x1="0" x2="0" y1="0" y2="1">
      <stop offset="0" stop-color="#f2eee4"/>
      <stop offset="1" stop-color="#aeb4bb"/>
    </linearGradient>
  </defs>
  <rect width="1200" height="675" fill="url(#sky)"/>
  <circle cx="960" cy="130" r="54" fill="#f9f2d5" opacity=".72"/>
  <path d="M0 495c185-44 330-50 507-24 172 25 351 14 693-76v280H0z" fill="#82909e" opacity=".42"/>
  <g fill="url(#stone)" stroke="#6e7a86" stroke-width="7" stroke-linejoin="round">
    <path d="M310 560h580l-52-245H362z"/>
    <path d="M420 315h360l-34-86H454z"/>
    <path d="M487 229h226l-24-58H511z"/>
    <path d="M336 560l74-385 64 385zM726 560l64-385 74 385zM520 560l43-457 37 457zM600 560l37-457 43 457z"/>
    <path d="M555 103h90l-20-45h-50z"/>
  </g>
  <g stroke="#eef5f9" stroke-width="3" opacity=".58">
    <path d="M377 361h446M392 428h416M405 494h390"/>
  </g>
</svg>
